<?xml version="1.0" ?><svg viewBox="0 0 64 64" xmlns="http://www.w3.org/2000/svg" width="24" height="24"><defs><style>.cls-1{fill:#4c241d;}.cls-2{fill:none;}.cls-10,.cls-2,.cls-4,.cls-5,.cls-6,.cls-7,.cls-8,.cls-9{stroke:#4c241d;stroke-linecap:round;stroke-linejoin:round;stroke-width:2px;}.cls-3{fill:#d2ddff;}.cls-4{fill:#9dc1e4;}.cls-5{fill:#fff;}.cls-6{fill:#fc8c29;}.cls-7{fill:#b5a19c;}.cls-8{fill:#26deeb;}.cls-9{fill:#ffded5;}.cls-10{fill:#a9ba5a;}</style></defs><g id="positive-doc"><circle class="cls-1" cx="5.74" cy="47.99" r="1.07"/><line class="cls-2" x1="55.59" x2="58.41" y1="2.59" y2="5.41"/><line class="cls-2" x1="58.41" x2="55.59" y1="2.59" y2="5.41"/><circle class="cls-3" cx="35.5" cy="29.5" r="22.5"/><circle class="cls-2" cx="56.15" cy="20.59" r="2.08"/><rect class="cls-4" height="54" rx="1" width="38" x="11" y="6"/><rect class="cls-5" height="50" width="30" x="15" y="6"/><path class="cls-6" d="M37,5h0a2,2,0,0,0-2-2H25a2,2,0,0,0-2,2H21.68A1.68,1.68,0,0,0,20,6.68V9.32A1.68,1.68,0,0,0,21.68,11H38.32A1.68,1.68,0,0,0,40,9.32V6.68A1.68,1.68,0,0,0,38.32,5Z"/><circle class="cls-7" cx="30" cy="23" r="8"/><path class="cls-8" d="M35.93,28.35A5,5,0,0,0,31,24H29a5,5,0,0,0-4.93,4.35,8,8,0,0,0,11.86,0Z"/><ellipse class="cls-9" cx="30" cy="21.5" rx="4" ry="4.5"/><circle class="cls-10" cx="29.5" cy="43" r="6.5"/><polyline class="cls-10" points="27 44 29 45 32 41"/></g></svg>