<svg height="30" style="enable-background:new 0 0 512 512;" version="1.1" viewBox="0 0 512 512" width="30" xml:space="preserve" xmlns="http://www.w3.org/2000/svg" xmlns:xlink="http://www.w3.org/1999/xlink"><g id="_x35_84_x2C__Camera_x2C__cam_x2C__video_cam_x2C__images_x2C__Couple_Photography"><g><rect height="27.18" style="fill:#EFA873;" width="38.05" x="79.31" y="177.37"/><polygon points="87.81,185.959 117.36,185.959 117.36,177.37 79.31,177.37 79.31,204.55 87.81,204.55   " style="fill:#D39266;"/><polygon points="432.69,177.37 432.69,204.55 373.59,204.55 369.27,194.67 369.27,177.37   " style="fill:#EFA873;"/><polygon points="377.27,203.26 377.27,185.959 432.69,185.959 432.69,177.37 369.27,177.37 369.27,194.67     373.59,204.55 377.834,204.55   " style="fill:#D39266;"/><rect height="36.24" style="fill:#924B35;" width="81.32" x="215.22" y="168.31"/><polygon points="224.686,179.06 296.54,179.06 296.54,168.31 215.22,168.31 215.22,204.55 224.686,204.55       " style="fill:#7F3E2D;"/><polygon points="369.27,194.67 369.27,204.55 296.54,204.55 296.54,168.31 215.22,168.31 215.22,204.55     140.25,204.55 167.99,141.12 345.85,141.12   " style="fill:#743629;"/><g><polygon points="175.15,151.87 350.551,151.87 345.85,141.12 167.99,141.12 140.25,204.55 152.111,204.55         " style="fill:#632A21;"/></g><path d="M459.88,385.779v57.771c0,8.029-6.64,14.719-14.6,14.719H66.27c-7.96,0-14.15-6.689-14.15-14.719    v-57.771h131.39c16.53,22,42.85,36.24,72.49,36.24c29.64,0,55.96-14.24,72.49-36.24H459.88z" style="fill:#F3705A;"/><g><path d="M267,432.688c29.64,0,55.96-14.24,72.49-36.24h120.39v-10.668H328.49     c-16.53,22-42.851,36.24-72.49,36.24c-21.76,0-41.724-7.682-57.345-20.467C215.266,420.621,239.724,432.688,267,432.688z" style="fill:#D85D50;"/><path d="M63.12,454.217v-57.77h129.806c-3.407-3.305-6.561-6.867-9.417-10.668H52.12v57.771     c0,7.107,4.854,13.156,11.489,14.453C63.3,456.791,63.12,455.525,63.12,454.217z" style="fill:#D85D50;"/></g><path d="M165.39,331.41c0,20.4,6.74,39.219,18.12,54.369H52.12v-36.25v-72.49h131.39    C172.13,292.189,165.39,311.01,165.39,331.41z" style="fill:#AED3E5;"/><path d="M61.37,359.279v-72.49h115.767c1.922-3.389,4.044-6.65,6.373-9.75H52.12v72.49v36.25h9.25V359.279z    " style="fill:#9FC4D3;"/><path d="M459.88,349.529v36.25H328.49c11.38-15.15,18.12-33.969,18.12-54.369s-6.74-39.221-18.12-54.371    h131.39V349.529z" style="fill:#AED3E5;"/><g><path d="M328.49,277.039c2.215,2.949,4.247,6.039,6.095,9.25H458.13v72.49v27h1.75v-36.25v-72.49H328.49z" style="fill:#9FC4D3;"/></g><path d="M459.88,219.27v57.769H328.49C311.96,255.03,285.64,240.8,256,240.8    c-29.64,0-55.96,14.23-72.49,36.239H52.12V219.27c0-8.03,6.19-14.72,14.15-14.72h13.04h38.05h22.89h74.97h81.32h72.729h4.32    h59.101h12.59C453.24,204.55,459.88,211.24,459.88,219.27z" style="fill:#F3705A;"/><g><path d="M328.006,276.414c0.16,0.209,0.326,0.414,0.484,0.625h0.16     C328.438,276.83,328.221,276.621,328.006,276.414z" style="fill:#D85D50;"/><path d="M61.12,229.38c0-8.03,6.19-14.72,14.15-14.72h13.04h38.05h22.89h74.97h81.32h72.729h4.32h59.101     h12.59c1.796,0,3.518,0.356,5.118,0.976c-1.641-6.314-7.4-11.085-14.118-11.085h-12.59H373.59h-4.32H296.54h-81.32h-74.97h-22.89     H79.31H66.27c-7.96,0-14.15,6.69-14.15,14.72v57.769h9V229.38z" style="fill:#D85D50;"/></g><path d="M328.49,277.039c11.38,15.15,18.12,33.971,18.12,54.371s-6.74,39.219-18.12,54.369    c-16.53,22-42.851,36.24-72.49,36.24c-29.64,0-55.96-14.24-72.49-36.24c-11.38-15.15-18.12-33.969-18.12-54.369    s6.74-39.221,18.12-54.371C200.04,255.03,226.36,240.8,256,240.8C285.64,240.8,311.96,255.03,328.49,277.039z" style="fill:#415A6B;"/><path d="M171.31,346.91c0-20.4,6.74-39.221,18.12-54.371c16.53-22.01,42.85-36.239,72.49-36.239    c29.64,0,55.96,14.229,72.49,36.239c3.381,4.5,6.34,9.332,8.847,14.426c-3.062-10.949-8.113-21.068-14.767-29.926    C311.96,255.03,285.64,240.8,256,240.8c-29.64,0-55.96,14.23-72.49,36.239c-11.38,15.15-18.12,33.971-18.12,54.371    c0,14.34,3.342,27.893,9.274,39.945C172.489,363.578,171.31,355.383,171.31,346.91z" style="fill:#354C59;"/><path d="M280.9,295.16c13.779,0,24.939,10.24,24.939,22.85c0,22.85-24.939,35.859-49.86,58.699    c-24.91-22.84-49.82-35.85-49.82-58.699c0-12.609,11.16-22.85,24.91-22.85c12.46,0,18.69,5.719,24.91,17.141    C262.21,300.879,268.44,295.16,280.9,295.16z" style="fill:#EF3E5C;"/><g><path d="M265.041,317.301c6.229-11.422,12.46-17.141,24.92-17.141c2.811,0,5.508,0.432,8.028,1.217     c-4.463-3.852-10.472-6.217-17.089-6.217c-10.711,0-16.816,4.238-22.277,12.68C260.912,310.371,262.979,313.516,265.041,317.301z     " style="fill:#D63457;"/><path d="M215.221,323.01c0-12.609,11.16-22.85,24.91-22.85c2.875,0,5.408,0.318,7.696,0.928     c-4.279-3.939-9.44-5.928-16.756-5.928c-13.75,0-24.91,10.24-24.91,22.85c0,22.85,24.91,35.859,49.82,58.699     c0.56-0.512,1.119-1.016,1.678-1.518C235.438,356.197,215.221,343.596,215.221,323.01z" style="fill:#D63457;"/></g><path d="M256.92,105.12c-2.761,0-5-2.239-5-5V58.73c0-2.761,2.239-5,5-5c2.762,0,5,2.239,5,5v41.39    C261.92,102.881,259.682,105.12,256.92,105.12z" style="fill:#632A21;"/><path d="M294.775,107.76c-0.91,0-1.832-0.248-2.659-0.769c-2.337-1.471-3.038-4.559-1.567-6.896    l22.45-35.66c1.471-2.336,4.559-3.04,6.896-1.567c2.337,1.471,3.038,4.559,1.567,6.896l-22.45,35.66    C298.062,106.933,296.437,107.76,294.775,107.76z" style="fill:#632A21;"/><path d="M218.625,107.76c-1.676,0-3.314-0.842-4.259-2.374l-22.02-35.66    c-1.451-2.35-0.722-5.43,1.627-6.881c2.35-1.452,5.431-0.722,6.881,1.627l22.02,35.66c1.451,2.35,0.722,5.43-1.627,6.881    C220.429,107.52,219.521,107.76,218.625,107.76z" style="fill:#632A21;"/></g></g><g id="Layer_1"/></svg>